<svg xmlns="http://www.w3.org/2000/svg" width="48" height="48"><path d="M30.701.338c-2.041 0-4.119.423-6.21 1.242-2.099.797-4.073 1.938-5.913 3.41l-.004.002-.004.004c-1.727 1.402-3.188 3.088-4.414 5-.054-.113-.151-.209-.199-.324a5.831 5.831 0 0 1-.398-2.098c0-.618.107-1.238.336-1.88a6.013 6.013 0 0 1 1.048-1.813c.273-.316.557-.713.557-1.348 0-.266-.087-.7-.418-1.031a1.492 1.492 0 0 0-1.031-.418c-.734 0-1.236.407-1.588.795-.877.909-1.557 1.893-1.998 2.95A8.014 8.014 0 0 0 9.8 7.983c0 1.2.254 2.383.744 3.506l.006.012.004.014c.387.84.98 1.564 1.576 2.285-.536 1.219-1.021 2.435-1.29 3.64-.316 1.4-.48 2.74-.48 4.02 0 1.721.257 3.331.785 4.807l.006.013.006.016c.548 1.424 1.289 2.666 2.233 3.695l.013.016.012.012c.968.996 2.092 1.741 3.334 2.185l.012.006.013.004c1.104.368 2.256.553 3.436.553 1.48 0 2.93-.237 4.33-.704 1.365-.446 2.647-1 3.842-1.664l.004-.002.006-.002c.728-.411 1.3-.818 1.92-1.226-.165.457-.294 1.037-.471 1.45l-.004.007-.004.01c-.466 1.134-1.123 2.38-1.846 3.66-.597.01-1.18.017-1.87.053l-.018.002-2.858.224c-.943.077-1.814.18-2.62.309a30.13 30.13 0 0 0-5.073 1.17l-.008.004-.01.002c-1.583.545-3.001 1.174-4.256 1.894l-.01.006-.007.006c-1.249.744-2.261 1.52-3.03 2.377-.8.89-1.34 1.89-1.34 2.994 0 .878.418 1.714 1.026 2.338.636.703 1.493 1.179 2.549 1.568l.002.002c.785.293 1.656.416 2.615.416 1.384 0 2.875-.266 4.482-.766 1.64-.477 3.29-1.173 4.952-2.082a27.52 27.52 0 0 0 4.728-3.279c1.325-1.097 2.427-2.374 3.44-3.715.812.007 1.633.02 2.498.06h.002c1.064.05 2.05.12 2.96.216.906.12 1.622.252 2.108.379.325.088.602.154.963.154.276 0 .592-.01.992-.244.4-.234.756-.86.756-1.319 0-.796-.35-1-.566-1.216-.445-.445-.804-.505-1.202-.604a33.22 33.22 0 0 0-3.847-.701l-.01-.002h-.012c-.772-.086-1.715-.103-2.588-.148.901-1.574 1.83-3.162 2.47-4.586l.001-.002a21.289 21.289 0 0 0 1.824-6.397c.1-.785-.048-1.642-.572-2.29-.434-.58-1.19-1.034-1.95-1.034-.952 0-1.709.487-2.405 1.123-.796.723-1.385 1.745-1.995 3.123l-.002.008-.003.006c-.106.245-.44.712-1.053 1.26-.587.52-1.331 1.043-2.237 1.554-.879.496-1.844.906-2.9 1.229-1.007.29-2.001.433-2.994.433-.341 0-.698-.02-1.07-.064a5.554 5.554 0 0 1-.957-.211c-1.076-.354-1.855-.984-2.489-2.067-.638-1.091-.978-2.425-.978-4.085 0-.983.122-2.057.377-3.217.186-.79.545-1.623.873-2.448 1.053.537 2.07 1.1 3.369 1.465l.008.002.008.002c1.88.503 3.795.744 5.73.717h.01c2.408-.052 4.555-.362 6.443-.955 1.88-.583 3.49-1.363 4.809-2.373 1.307-.982 2.326-2.1 3.004-3.363.682-1.228 1.054-2.523 1.054-3.83 0-1.88-.773-3.644-2.154-5.082-1.453-1.514-3.555-2.41-6.152-2.811h-.002a14.167 14.167 0 0 0-1.06-.123h-.009a12.539 12.539 0 0 0-1.033-.041zm2.285 1.283.06.012-.03-.004-.03-.008zm4.758 2.158.024.026c-.004-.004-.009-.005-.012-.008-.005-.005-.007-.013-.012-.018zm-6.22.354h.634c.05 0 .187.01.38.049l.03.005.03.004c1.634.247 2.676.761 3.28 1.4l.015.014.011.012c.696.696.963 1.342.963 2.18 0 .86-.322 1.802-1.125 2.887l-.006.005-.004.008c-.748 1.04-1.906 2.002-3.54 2.854-1.56.8-3.524 1.34-5.913 1.576l-.746.068h-.767c-1.523 0-2.944-.206-4.282-.613l-.005-.002c-.908-.282-1.564-.71-2.26-1.115.133-.225.262-.444.455-.777a19.93 19.93 0 0 1 3.744-4.479c1.48-1.316 3.01-2.321 4.596-3.033h.002c1.603-.71 3.098-1.043 4.507-1.043zM25.11 38.012c-.414.415-.746.922-1.203 1.293a21.345 21.345 0 0 1-3.906 2.535l-.012.006-.011.006c-1.346.708-2.626 1.217-3.834 1.537l-.01.002-.012.004c-1.239.35-2.276.511-3.08.511-.347 0-.642-.032-.885-.084l-.01-.002-.007-.002c-.422-.084-.59-.185-.682-.24.018-.073.088-.325.549-.795.604-.558 1.415-1.153 2.441-1.76h.002a24.278 24.278 0 0 1 3.414-1.617 20.36 20.36 0 0 1 3.563-.945h.008l.005-.002a39.219 39.219 0 0 1 3.317-.432l.008-.002c.114-.007.231-.007.345-.013zm-8.279 7.884-.023.006.007-.004c.006-.001.01 0 .016-.002z" style="color:#000;-inkscape-font-specification:&quot;Great Vibes, Bold&quot;;fill:gray;stroke-miterlimit:4.1;-inkscape-stroke:none"/></svg>